# WaveFront *.obj file (generated by Autodesk ATF)

mtllib bottlecap1.mtl

g Body1

v -0.014800 0.000000 0.012000
v -0.014726 -0.001474 0.012000
v -0.014507 -0.002933 0.012000
v -0.014142 -0.004362 0.012000
v -0.013638 -0.005749 0.012000
v -0.012998 -0.007078 0.012000
v -0.012228 -0.008337 0.012000
v -0.011337 -0.009513 0.012000
v -0.010334 -0.010595 0.012000
v -0.009228 -0.011571 0.012000
v -0.008030 -0.012432 0.012000
v -0.006752 -0.013170 0.012000
v -0.005407 -0.013777 0.012000
v -0.004008 -0.014247 0.012000
v -0.002570 -0.014575 0.012000
v -0.001106 -0.014759 0.012000
v 0.000369 -0.014795 0.012000
v 0.001840 -0.014685 0.012000
v 0.003293 -0.014429 0.012000
v 0.004714 -0.014029 0.012000
v 0.006087 -0.013490 0.012000
v 0.007400 -0.012817 0.012000
v 0.008639 -0.012017 0.012000
v 0.009793 -0.011097 0.012000
v 0.010849 -0.010067 0.012000
v 0.011798 -0.008936 0.012000
v 0.012629 -0.007717 0.012000
v 0.013334 -0.006421 0.012000
v 0.013907 -0.005062 0.012000
v 0.014342 -0.003652 0.012000
v 0.014635 -0.002206 0.012000
v 0.014782 -0.000738 0.012000
v 0.014782 0.000738 0.012000
v 0.014635 0.002206 0.012000
v 0.014342 0.003652 0.012000
v 0.013907 0.005062 0.012000
v 0.013334 0.006421 0.012000
v 0.012629 0.007717 0.012000
v 0.011798 0.008936 0.012000
v 0.010849 0.010067 0.012000
v 0.009793 0.011097 0.012000
v 0.008639 0.012017 0.012000
v 0.007400 0.012817 0.012000
v 0.006087 0.013490 0.012000
v 0.004714 0.014029 0.012000
v 0.003293 0.014429 0.012000
v 0.001840 0.014685 0.012000
v 0.000369 0.014795 0.012000
v -0.001106 0.014759 0.012000
v -0.002570 0.014575 0.012000
v -0.004008 0.014247 0.012000
v -0.005407 0.013777 0.012000
v -0.006752 0.013170 0.012000
v -0.008030 0.012432 0.012000
v -0.009228 0.011571 0.012000
v -0.010334 0.010595 0.012000
v -0.011337 0.009513 0.012000
v -0.012228 0.008337 0.012000
v -0.012998 0.007078 0.012000
v -0.013638 0.005749 0.012000
v -0.014142 0.004362 0.012000
v -0.014507 0.002933 0.012000
v -0.014726 0.001474 0.012000
v -0.014800 0.000000 0.001200
v -0.014726 0.001474 0.001200
v -0.014507 0.002933 0.001200
v -0.014142 0.004362 0.001200
v -0.013638 0.005749 0.001200
v -0.012998 0.007078 0.001200
v -0.012228 0.008337 0.001200
v -0.011337 0.009513 0.001200
v -0.010334 0.010595 0.001200
v -0.009228 0.011571 0.001200
v -0.008030 0.012432 0.001200
v -0.006752 0.013170 0.001200
v -0.005407 0.013777 0.001200
v -0.004008 0.014247 0.001200
v -0.002570 0.014575 0.001200
v -0.001106 0.014759 0.001200
v 0.000369 0.014795 0.001200
v 0.001840 0.014685 0.001200
v 0.003293 0.014429 0.001200
v 0.004714 0.014029 0.001200
v 0.006087 0.013490 0.001200
v 0.007400 0.012817 0.001200
v 0.008639 0.012017 0.001200
v 0.009793 0.011097 0.001200
v 0.010849 0.010067 0.001200
v 0.011798 0.008936 0.001200
v 0.012629 0.007717 0.001200
v 0.013334 0.006421 0.001200
v 0.013907 0.005062 0.001200
v 0.014342 0.003652 0.001200
v 0.014635 0.002206 0.001200
v 0.014782 0.000738 0.001200
v 0.014782 -0.000738 0.001200
v 0.014635 -0.002206 0.001200
v 0.014342 -0.003652 0.001200
v 0.013907 -0.005062 0.001200
v 0.013334 -0.006421 0.001200
v 0.012629 -0.007717 0.001200
v 0.011798 -0.008936 0.001200
v 0.010849 -0.010067 0.001200
v 0.009793 -0.011097 0.001200
v 0.008639 -0.012017 0.001200
v 0.007400 -0.012817 0.001200
v 0.006087 -0.013490 0.001200
v 0.004714 -0.014029 0.001200
v 0.003293 -0.014429 0.001200
v 0.001840 -0.014685 0.001200
v 0.000369 -0.014795 0.001200
v -0.001106 -0.014759 0.001200
v -0.002570 -0.014575 0.001200
v -0.004008 -0.014247 0.001200
v -0.005407 -0.013777 0.001200
v -0.006752 -0.013170 0.001200
v -0.008030 -0.012432 0.001200
v -0.009228 -0.011571 0.001200
v -0.010334 -0.010595 0.001200
v -0.011337 -0.009513 0.001200
v -0.012228 -0.008337 0.001200
v -0.012998 -0.007078 0.001200
v -0.013638 -0.005749 0.001200
v -0.014142 -0.004362 0.001200
v -0.014507 -0.002933 0.001200
v -0.014726 -0.001474 0.001200
v -0.016000 -0.000000 0.012000
v -0.015925 0.001544 0.012000
v -0.015702 0.003074 0.012000
v -0.015332 0.004575 0.012000
v -0.014819 0.006034 0.012000
v -0.014167 0.007436 0.012000
v -0.013384 0.008768 0.012000
v -0.012475 0.010019 0.012000
v -0.011450 0.011176 0.012000
v -0.010317 0.012229 0.012000
v -0.009089 0.013168 0.012000
v -0.007776 0.013983 0.012000
v -0.006390 0.014669 0.012000
v -0.004944 0.015217 0.012000
v -0.003453 0.015623 0.012000
v -0.001929 0.015883 0.012000
v -0.000387 0.015995 0.012000
v 0.001159 0.015958 0.012000
v 0.002694 0.015772 0.012000
v 0.004203 0.015438 0.012000
v 0.005674 0.014960 0.012000
v 0.007091 0.014343 0.012000
v 0.008442 0.013591 0.012000
v 0.009715 0.012713 0.012000
v 0.010896 0.011716 0.012000
v 0.011976 0.010610 0.012000
v 0.012944 0.009405 0.012000
v 0.013792 0.008111 0.012000
v 0.014510 0.006742 0.012000
v 0.015093 0.005311 0.012000
v 0.015535 0.003829 0.012000
v 0.015832 0.002312 0.012000
v 0.015981 0.000773 0.012000
v 0.015981 -0.000773 0.012000
v 0.015832 -0.002312 0.012000
v 0.015535 -0.003829 0.012000
v 0.015093 -0.005311 0.012000
v 0.014510 -0.006742 0.012000
v 0.013792 -0.008111 0.012000
v 0.012944 -0.009405 0.012000
v 0.011976 -0.010610 0.012000
v 0.010896 -0.011716 0.012000
v 0.009715 -0.012713 0.012000
v 0.008442 -0.013591 0.012000
v 0.007091 -0.014343 0.012000
v 0.005674 -0.014960 0.012000
v 0.004203 -0.015438 0.012000
v 0.002694 -0.015772 0.012000
v 0.001159 -0.015958 0.012000
v -0.000387 -0.015995 0.012000
v -0.001929 -0.015883 0.012000
v -0.003453 -0.015623 0.012000
v -0.004944 -0.015217 0.012000
v -0.006390 -0.014669 0.012000
v -0.007776 -0.013983 0.012000
v -0.009089 -0.013168 0.012000
v -0.010317 -0.012229 0.012000
v -0.011450 -0.011176 0.012000
v -0.012475 -0.010019 0.012000
v -0.013384 -0.008768 0.012000
v -0.014167 -0.007436 0.012000
v -0.014819 -0.006034 0.012000
v -0.015332 -0.004575 0.012000
v -0.015702 -0.003074 0.012000
v -0.015925 -0.001544 0.012000
v -0.016000 -0.000000 0.000000
v -0.015925 -0.001544 0.000000
v -0.015702 -0.003074 0.000000
v -0.015332 -0.004575 0.000000
v -0.014819 -0.006034 0.000000
v -0.014167 -0.007436 0.000000
v -0.013384 -0.008768 0.000000
v -0.012475 -0.010019 0.000000
v -0.011450 -0.011176 0.000000
v -0.010317 -0.012229 0.000000
v -0.009089 -0.013168 0.000000
v -0.007776 -0.013983 0.000000
v -0.006390 -0.014669 0.000000
v -0.004944 -0.015217 0.000000
v -0.003453 -0.015623 0.000000
v -0.001929 -0.015883 0.000000
v -0.000387 -0.015995 0.000000
v 0.001159 -0.015958 0.000000
v 0.002694 -0.015772 0.000000
v 0.004203 -0.015438 0.000000
v 0.005674 -0.014960 0.000000
v 0.007091 -0.014343 0.000000
v 0.008442 -0.013591 0.000000
v 0.009715 -0.012713 0.000000
v 0.010896 -0.011716 0.000000
v 0.011976 -0.010610 0.000000
v 0.012944 -0.009405 0.000000
v 0.013792 -0.008111 0.000000
v 0.014510 -0.006742 0.000000
v 0.015093 -0.005311 0.000000
v 0.015535 -0.003829 0.000000
v 0.015832 -0.002312 0.000000
v 0.015981 -0.000773 0.000000
v 0.015981 0.000773 0.000000
v 0.015832 0.002312 0.000000
v 0.015535 0.003829 0.000000
v 0.015093 0.005311 0.000000
v 0.014510 0.006742 0.000000
v 0.013792 0.008111 0.000000
v 0.012944 0.009405 0.000000
v 0.011976 0.010610 0.000000
v 0.010896 0.011716 0.000000
v 0.009715 0.012713 0.000000
v 0.008442 0.013591 0.000000
v 0.007091 0.014343 0.000000
v 0.005674 0.014960 0.000000
v 0.004203 0.015438 0.000000
v 0.002694 0.015772 0.000000
v 0.001159 0.015958 0.000000
v -0.000387 0.015995 0.000000
v -0.001929 0.015883 0.000000
v -0.003453 0.015623 0.000000
v -0.004944 0.015217 0.000000
v -0.006390 0.014669 0.000000
v -0.007776 0.013983 0.000000
v -0.009089 0.013168 0.000000
v -0.010317 0.012229 0.000000
v -0.011450 0.011176 0.000000
v -0.012475 0.010019 0.000000
v -0.013384 0.008768 0.000000
v -0.014167 0.007436 0.000000
v -0.014819 0.006034 0.000000
v -0.015332 0.004575 0.000000
v -0.015702 0.003074 0.000000
v -0.015925 0.001544 0.000000
vt 1.200000 -4.501952 0.000000
vt 0.120000 -4.501952 0.000000
vt 1.200000 -4.649557 0.000000
vt 0.120000 -4.649557 0.000000
vt 1.200000 4.649557 0.000000
vt 0.120000 4.649557 0.000000
vt 1.200000 4.501952 0.000000
vt 0.120000 4.501952 0.000000
vt 1.200000 4.354347 0.000000
vt 0.120000 4.354347 0.000000
vt 1.200000 4.206742 0.000000
vt 0.120000 4.206742 0.000000
vt 1.200000 4.059137 0.000000
vt 0.120000 4.059137 0.000000
vt 1.200000 3.911532 0.000000
vt 0.120000 3.911532 0.000000
vt 1.200000 3.763927 0.000000
vt 0.120000 3.763927 0.000000
vt 1.200000 3.616322 0.000000
vt 0.120000 3.616322 0.000000
vt 1.200000 3.468717 0.000000
vt 0.120000 3.468717 0.000000
vt 1.200000 3.321112 0.000000
vt 0.120000 3.321112 0.000000
vt 1.200000 3.173507 0.000000
vt 0.120000 3.173507 0.000000
vt 1.200000 3.025902 0.000000
vt 0.120000 3.025902 0.000000
vt 1.200000 2.878297 0.000000
vt 0.120000 2.878297 0.000000
vt 1.200000 2.730692 0.000000
vt 0.120000 2.730692 0.000000
vt 1.200000 2.583087 0.000000
vt 0.120000 2.583087 0.000000
vt 1.200000 2.435482 0.000000
vt 0.120000 2.435482 0.000000
vt 1.200000 2.287877 0.000000
vt 0.120000 2.287877 0.000000
vt 1.200000 2.140272 0.000000
vt 0.120000 2.140272 0.000000
vt 1.200000 1.992667 0.000000
vt 0.120000 1.992667 0.000000
vt 1.200000 1.845062 0.000000
vt 0.120000 1.845062 0.000000
vt 1.200000 1.697457 0.000000
vt 0.120000 1.697457 0.000000
vt 1.200000 1.549852 0.000000
vt 0.120000 1.549852 0.000000
vt 1.200000 1.402247 0.000000
vt 0.120000 1.402247 0.000000
vt 1.200000 1.254642 0.000000
vt 0.120000 1.254642 0.000000
vt 1.200000 1.107037 0.000000
vt 0.120000 1.107037 0.000000
vt 1.200000 0.959432 0.000000
vt 0.120000 0.959432 0.000000
vt 1.200000 0.811827 0.000000
vt 0.120000 0.811827 0.000000
vt 1.200000 0.664222 0.000000
vt 0.120000 0.664222 0.000000
vt 1.200000 0.516617 0.000000
vt 0.120000 0.516617 0.000000
vt 1.200000 0.369012 0.000000
vt 0.120000 0.369012 0.000000
vt 1.200000 0.221407 0.000000
vt 0.120000 0.221407 0.000000
vt 1.200000 0.073802 0.000000
vt 0.120000 0.073802 0.000000
vt 1.200000 -0.073802 0.000000
vt 0.120000 -0.073802 0.000000
vt 1.200000 -0.221407 0.000000
vt 0.120000 -0.221407 0.000000
vt 1.200000 -0.369012 0.000000
vt 0.120000 -0.369012 0.000000
vt 1.200000 -0.516617 0.000000
vt 0.120000 -0.516617 0.000000
vt 1.200000 -0.664222 0.000000
vt 0.120000 -0.664222 0.000000
vt 1.200000 -0.811827 0.000000
vt 0.120000 -0.811827 0.000000
vt 1.200000 -0.959432 0.000000
vt 0.120000 -0.959432 0.000000
vt 1.200000 -1.107037 0.000000
vt 0.120000 -1.107037 0.000000
vt 1.200000 -1.254642 0.000000
vt 0.120000 -1.254642 0.000000
vt 1.200000 -1.402247 0.000000
vt 0.120000 -1.402247 0.000000
vt 1.200000 -1.549852 0.000000
vt 0.120000 -1.549852 0.000000
vt 1.200000 -1.697457 0.000000
vt 0.120000 -1.697457 0.000000
vt 1.200000 -1.845062 0.000000
vt 0.120000 -1.845062 0.000000
vt 1.200000 -1.992667 0.000000
vt 0.120000 -1.992667 0.000000
vt 1.200000 -2.140272 0.000000
vt 0.120000 -2.140272 0.000000
vt 1.200000 -2.287877 0.000000
vt 0.120000 -2.287877 0.000000
vt 1.200000 -2.435482 0.000000
vt 0.120000 -2.435482 0.000000
vt 1.200000 -2.583087 0.000000
vt 0.120000 -2.583087 0.000000
vt 1.200000 -2.730692 0.000000
vt 0.120000 -2.730692 0.000000
vt 1.200000 -2.878297 0.000000
vt 0.120000 -2.878297 0.000000
vt 1.200000 -3.025902 0.000000
vt 0.120000 -3.025902 0.000000
vt 1.200000 -3.173507 0.000000
vt 0.120000 -3.173507 0.000000
vt 1.200000 -3.321112 0.000000
vt 0.120000 -3.321112 0.000000
vt 1.200000 -3.468717 0.000000
vt 0.120000 -3.468717 0.000000
vt 1.200000 -3.616322 0.000000
vt 0.120000 -3.616322 0.000000
vt 1.200000 -3.763927 0.000000
vt 0.120000 -3.763927 0.000000
vt 1.200000 -3.911532 0.000000
vt 0.120000 -3.911532 0.000000
vt 1.200000 -4.059137 0.000000
vt 0.120000 -4.059137 0.000000
vt 1.200000 -4.206742 0.000000
vt 0.120000 -4.206742 0.000000
vt 1.200000 -4.354347 0.000000
vt 0.120000 -4.354347 0.000000
vt -1.472646 -0.147360 0.000000
vt 0.863941 1.201668 0.000000
vt -1.480000 0.000000 0.000000
vt 0.740000 1.281718 0.000000
vt 0.608705 1.349029 0.000000
vt -1.450655 -0.293256 0.000000
vt 1.463470 -0.220583 0.000000
vt 1.478160 -0.073772 0.000000
vt 1.478160 0.073772 0.000000
vt 1.434234 -0.365201 0.000000
vt -1.414248 -0.436238 0.000000
vt 1.390745 -0.506190 0.000000
vt -1.363785 -0.574883 0.000000
vt 1.333434 -0.642148 0.000000
vt -1.299768 -0.707816 0.000000
vt 1.262871 -0.771724 0.000000
vt -1.222833 -0.833714 0.000000
vt 1.179756 -0.893631 0.000000
vt -1.133746 -0.951326 0.000000
vt 1.084917 -1.006656 0.000000
vt -1.033390 -1.059483 0.000000
vt 0.979295 -1.109676 0.000000
vt -0.922765 -1.157111 0.000000
vt 0.863941 -1.201668 0.000000
vt -0.802968 -1.243238 0.000000
vt 0.740000 -1.281718 0.000000
vt -0.675192 -1.317010 0.000000
vt 0.608705 -1.349029 0.000000
vt -0.540705 -1.377693 0.000000
vt 0.471360 -1.402932 0.000000
vt -0.400844 -1.424684 0.000000
vt 0.329331 -1.442893 0.000000
vt -0.256999 -1.457515 0.000000
vt 0.184029 -1.468514 0.000000
vt -0.110601 -1.475862 0.000000
vt 0.036897 -1.479540 0.000000
vt 1.463470 0.220583 0.000000
vt 1.434234 0.365201 0.000000
vt 1.390745 0.506190 0.000000
vt 1.333434 0.642148 0.000000
vt 1.262871 0.771724 0.000000
vt 1.179756 0.893631 0.000000
vt 1.084917 1.006656 0.000000
vt 0.979295 1.109676 0.000000
vt 0.471360 1.402932 0.000000
vt 0.329331 1.442893 0.000000
vt 0.184029 1.468514 0.000000
vt 0.036897 1.479540 0.000000
vt -0.110601 1.475862 0.000000
vt -0.256999 1.457515 0.000000
vt -0.400844 1.424684 0.000000
vt -0.540705 1.377693 0.000000
vt -0.675192 1.317010 0.000000
vt -0.802968 1.243238 0.000000
vt -0.922765 1.157111 0.000000
vt -1.033390 1.059483 0.000000
vt -1.133746 0.951326 0.000000
vt -1.222833 0.833714 0.000000
vt -1.299768 0.707816 0.000000
vt -1.363785 0.574883 0.000000
vt -1.414248 0.436238 0.000000
vt -1.450655 0.293256 0.000000
vt -1.472646 0.147360 0.000000
vt -1.200000 4.871885 0.000000
vt -0.000000 4.871885 0.000000
vt -1.200000 5.026548 0.000000
vt -0.000000 5.026548 0.000000
vt -1.200000 -5.026548 0.000000
vt -0.000000 -5.026548 0.000000
vt -1.200000 -4.871885 0.000000
vt -0.000000 -4.871885 0.000000
vt -1.200000 -4.717222 0.000000
vt -0.000000 -4.717222 0.000000
vt -1.200000 -4.562559 0.000000
vt -0.000000 -4.562559 0.000000
vt -1.200000 -4.407896 0.000000
vt -0.000000 -4.407896 0.000000
vt -1.200000 -4.253233 0.000000
vt -0.000000 -4.253233 0.000000
vt -1.200000 -4.098570 0.000000
vt -0.000000 -4.098570 0.000000
vt -1.200000 -3.943907 0.000000
vt -0.000000 -3.943907 0.000000
vt -1.200000 -3.789244 0.000000
vt -0.000000 -3.789244 0.000000
vt -1.200000 -3.634581 0.000000
vt -0.000000 -3.634581 0.000000
vt -1.200000 -3.479918 0.000000
vt -0.000000 -3.479918 0.000000
vt -1.200000 -3.325255 0.000000
vt -0.000000 -3.325255 0.000000
vt -1.200000 -3.170592 0.000000
vt -0.000000 -3.170592 0.000000
vt -1.200000 -3.015929 0.000000
vt -0.000000 -3.015929 0.000000
vt -1.200000 -2.861266 0.000000
vt -0.000000 -2.861266 0.000000
vt -1.200000 -2.706603 0.000000
vt -0.000000 -2.706603 0.000000
vt -1.200000 -2.551940 0.000000
vt -0.000000 -2.551940 0.000000
vt -1.200000 -2.397277 0.000000
vt -0.000000 -2.397277 0.000000
vt -1.200000 -2.242614 0.000000
vt -0.000000 -2.242614 0.000000
vt -1.200000 -2.087951 0.000000
vt -0.000000 -2.087951 0.000000
vt -1.200000 -1.933288 0.000000
vt -0.000000 -1.933288 0.000000
vt -1.200000 -1.778625 0.000000
vt -0.000000 -1.778625 0.000000
vt -1.200000 -1.623962 0.000000
vt -0.000000 -1.623962 0.000000
vt -1.200000 -1.469299 0.000000
vt -0.000000 -1.469299 0.000000
vt -1.200000 -1.314636 0.000000
vt -0.000000 -1.314636 0.000000
vt -1.200000 -1.159973 0.000000
vt -0.000000 -1.159973 0.000000
vt -1.200000 -1.005310 0.000000
vt -0.000000 -1.005310 0.000000
vt -1.200000 -0.850647 0.000000
vt -0.000000 -0.850647 0.000000
vt -1.200000 -0.695984 0.000000
vt -0.000000 -0.695984 0.000000
vt -1.200000 -0.541321 0.000000
vt -0.000000 -0.541321 0.000000
vt -1.200000 -0.386658 0.000000
vt -0.000000 -0.386658 0.000000
vt -1.200000 -0.231995 0.000000
vt -0.000000 -0.231995 0.000000
vt -1.200000 -0.077332 0.000000
vt -0.000000 -0.077332 0.000000
vt -1.200000 0.077332 0.000000
vt -0.000000 0.077332 0.000000
vt -1.200000 0.231995 0.000000
vt -0.000000 0.231995 0.000000
vt -1.200000 0.386658 0.000000
vt -0.000000 0.386658 0.000000
vt -1.200000 0.541321 0.000000
vt -0.000000 0.541321 0.000000
vt -1.200000 0.695984 0.000000
vt -0.000000 0.695984 0.000000
vt -1.200000 0.850647 0.000000
vt -0.000000 0.850647 0.000000
vt -1.200000 1.005310 0.000000
vt -0.000000 1.005310 0.000000
vt -1.200000 1.159973 0.000000
vt -0.000000 1.159973 0.000000
vt -1.200000 1.314636 0.000000
vt -0.000000 1.314636 0.000000
vt -1.200000 1.469299 0.000000
vt -0.000000 1.469299 0.000000
vt -1.200000 1.623962 0.000000
vt -0.000000 1.623962 0.000000
vt -1.200000 1.778625 0.000000
vt -0.000000 1.778625 0.000000
vt -1.200000 1.933288 0.000000
vt -0.000000 1.933288 0.000000
vt -1.200000 2.087951 0.000000
vt -0.000000 2.087951 0.000000
vt -1.200000 2.242614 0.000000
vt -0.000000 2.242614 0.000000
vt -1.200000 2.397277 0.000000
vt -0.000000 2.397277 0.000000
vt -1.200000 2.551940 0.000000
vt -0.000000 2.551940 0.000000
vt -1.200000 2.706603 0.000000
vt -0.000000 2.706603 0.000000
vt -1.200000 2.861266 0.000000
vt -0.000000 2.861266 0.000000
vt -1.200000 3.015929 0.000000
vt -0.000000 3.015929 0.000000
vt -1.200000 3.170592 0.000000
vt -0.000000 3.170592 0.000000
vt -1.200000 3.325255 0.000000
vt -0.000000 3.325255 0.000000
vt -1.200000 3.479918 0.000000
vt -0.000000 3.479918 0.000000
vt -1.200000 3.634581 0.000000
vt -0.000000 3.634581 0.000000
vt -1.200000 3.789244 0.000000
vt -0.000000 3.789244 0.000000
vt -1.200000 3.943907 0.000000
vt -0.000000 3.943907 0.000000
vt -1.200000 4.098570 0.000000
vt -0.000000 4.098570 0.000000
vt -1.200000 4.253233 0.000000
vt -0.000000 4.253233 0.000000
vt -1.200000 4.407896 0.000000
vt -0.000000 4.407896 0.000000
vt -1.200000 4.562559 0.000000
vt -0.000000 4.562559 0.000000
vt -1.200000 4.717222 0.000000
vt -0.000000 4.717222 0.000000
vt -1.472646 0.147360 0.000000
vt -1.592531 0.154422 0.000000
vt -1.480000 0.000000 0.000000
vt -1.600000 -0.000000 0.000000
vt -1.592531 -0.154422 0.000000
vt -1.570192 0.307403 0.000000
vt -1.450655 0.293256 0.000000
vt -1.533193 0.457513 0.000000
vt -1.414248 0.436238 0.000000
vt -1.481879 0.603352 0.000000
vt -1.363785 0.574883 0.000000
vt -1.416730 0.743557 0.000000
vt -1.299768 0.707816 0.000000
vt -1.338352 0.876820 0.000000
vt -1.222833 0.833714 0.000000
vt -1.247479 1.001896 0.000000
vt -1.133746 0.951326 0.000000
vt -1.144958 1.117618 0.000000
vt -1.033390 1.059483 0.000000
vt -1.031748 1.222905 0.000000
vt -0.922765 1.157111 0.000000
vt -0.908904 1.316774 0.000000
vt -0.802968 1.243238 0.000000
vt -0.777573 1.398349 0.000000
vt -0.675192 1.317010 0.000000
vt -0.638983 1.466868 0.000000
vt -0.540705 1.377693 0.000000
vt -0.494427 1.521690 0.000000
vt -0.400844 1.424684 0.000000
vt -0.345255 1.562306 0.000000
vt -0.256999 1.457515 0.000000
vt -0.192859 1.588334 0.000000
vt -0.110601 1.475862 0.000000
vt -0.038662 1.599533 0.000000
vt 0.036897 1.479540 0.000000
vt 0.115896 1.595797 0.000000
vt 0.184029 1.468514 0.000000
vt 0.269371 1.577162 0.000000
vt 0.329331 1.442893 0.000000
vt 0.420332 1.543801 0.000000
vt 0.471360 1.402932 0.000000
vt 0.567368 1.496026 0.000000
vt 0.608705 1.349029 0.000000
vt 0.709106 1.434283 0.000000
vt 0.740000 1.281718 0.000000
vt 0.844224 1.359149 0.000000
vt 0.863941 1.201668 0.000000
vt 0.971460 1.271324 0.000000
vt 0.979295 1.109676 0.000000
vt 1.089625 1.171630 0.000000
vt 1.084917 1.006656 0.000000
vt 1.197617 1.060996 0.000000
vt 1.179756 0.893631 0.000000
vt 1.294427 0.940456 0.000000
vt 1.262871 0.771724 0.000000
vt 1.379151 0.811136 0.000000
vt 1.333434 0.642148 0.000000
vt 1.450999 0.674242 0.000000
vt 1.390745 0.506190 0.000000
vt 1.509299 0.531053 0.000000
vt 1.434234 0.365201 0.000000
vt 1.553507 0.382905 0.000000
vt 1.463470 0.220583 0.000000
vt 1.583210 0.231182 0.000000
vt 1.478160 0.073772 0.000000
vt 1.598132 0.077301 0.000000
vt 1.598132 -0.077301 0.000000
vt 1.478160 -0.073772 0.000000
vt 1.583210 -0.231182 0.000000
vt 1.463470 -0.220583 0.000000
vt 1.553507 -0.382905 0.000000
vt 1.434234 -0.365201 0.000000
vt 1.509299 -0.531053 0.000000
vt 1.390745 -0.506190 0.000000
vt 1.450999 -0.674242 0.000000
vt 1.333434 -0.642148 0.000000
vt 1.379151 -0.811136 0.000000
vt 1.262871 -0.771724 0.000000
vt 1.294427 -0.940456 0.000000
vt 1.179756 -0.893631 0.000000
vt 1.197617 -1.060996 0.000000
vt 1.084917 -1.006656 0.000000
vt 1.089625 -1.171630 0.000000
vt 0.979295 -1.109676 0.000000
vt 0.971460 -1.271324 0.000000
vt 0.863941 -1.201668 0.000000
vt 0.844224 -1.359149 0.000000
vt 0.740000 -1.281718 0.000000
vt 0.709106 -1.434283 0.000000
vt 0.608705 -1.349029 0.000000
vt 0.567368 -1.496026 0.000000
vt 0.471360 -1.402932 0.000000
vt 0.420332 -1.543801 0.000000
vt 0.329331 -1.442893 0.000000
vt 0.269371 -1.577162 0.000000
vt 0.184029 -1.468514 0.000000
vt 0.115896 -1.595797 0.000000
vt 0.036897 -1.479540 0.000000
vt -0.038662 -1.599533 0.000000
vt -0.110601 -1.475862 0.000000
vt -0.192859 -1.588334 0.000000
vt -0.256999 -1.457515 0.000000
vt -0.345255 -1.562306 0.000000
vt -0.400844 -1.424684 0.000000
vt -0.494427 -1.521690 0.000000
vt -0.540705 -1.377693 0.000000
vt -0.638983 -1.466868 0.000000
vt -0.675192 -1.317010 0.000000
vt -0.777573 -1.398349 0.000000
vt -0.802968 -1.243238 0.000000
vt -0.908904 -1.316774 0.000000
vt -0.922765 -1.157111 0.000000
vt -1.031748 -1.222905 0.000000
vt -1.033390 -1.059483 0.000000
vt -1.144958 -1.117618 0.000000
vt -1.133746 -0.951326 0.000000
vt -1.247479 -1.001896 0.000000
vt -1.222833 -0.833714 0.000000
vt -1.338352 -0.876820 0.000000
vt -1.299768 -0.707816 0.000000
vt -1.416730 -0.743557 0.000000
vt -1.363785 -0.574883 0.000000
vt -1.481879 -0.603352 0.000000
vt -1.414248 -0.436238 0.000000
vt -1.533193 -0.457513 0.000000
vt -1.450655 -0.293256 0.000000
vt -1.570192 -0.307403 0.000000
vt -1.472646 -0.147360 0.000000
vt 1.592531 -0.154422 0.000000
vt 1.600000 -0.000000 0.000000
vt -1.598132 -0.077301 0.000000
vt 1.592531 0.154422 0.000000
vt 1.570192 0.307403 0.000000
vt 1.533193 0.457513 0.000000
vt 1.481879 0.603352 0.000000
vt 1.416730 0.743557 0.000000
vt 1.338352 0.876820 0.000000
vt 1.247479 1.001896 0.000000
vt 1.144958 1.117618 0.000000
vt 1.031748 1.222905 0.000000
vt 0.908904 1.316774 0.000000
vt 0.777573 1.398349 0.000000
vt 0.638983 1.466868 0.000000
vt 0.494427 1.521690 0.000000
vt 0.345255 1.562306 0.000000
vt 0.192859 1.588334 0.000000
vt 0.038662 1.599533 0.000000
vt -0.115896 1.595797 0.000000
vt -0.269371 1.577162 0.000000
vt -0.420332 1.543801 0.000000
vt -0.567368 1.496026 0.000000
vt -0.709106 1.434283 0.000000
vt -0.844224 1.359149 0.000000
vt -0.971460 1.271324 0.000000
vt -1.089625 1.171630 0.000000
vt -1.197617 1.060996 0.000000
vt -1.294427 0.940456 0.000000
vt -1.379151 0.811136 0.000000
vt -1.450999 0.674242 0.000000
vt -1.509299 0.531053 0.000000
vt -1.553507 0.382905 0.000000
vt -1.598132 0.077301 0.000000
vt -1.583210 0.231182 0.000000
vt -1.583210 -0.231182 0.000000
vt 1.570192 -0.307403 0.000000
vt -1.553507 -0.382905 0.000000
vt 1.533193 -0.457513 0.000000
vt -1.509299 -0.531053 0.000000
vt 1.481879 -0.603352 0.000000
vt -1.450999 -0.674242 0.000000
vt 1.416730 -0.743557 0.000000
vt -1.379151 -0.811136 0.000000
vt 1.338352 -0.876820 0.000000
vt -1.294427 -0.940456 0.000000
vt 1.247479 -1.001896 0.000000
vt -1.197617 -1.060996 0.000000
vt 1.144958 -1.117618 0.000000
vt -1.089625 -1.171630 0.000000
vt 1.031748 -1.222905 0.000000
vt -0.971460 -1.271324 0.000000
vt 0.908904 -1.316774 0.000000
vt -0.844224 -1.359149 0.000000
vt 0.777573 -1.398349 0.000000
vt -0.709106 -1.434283 0.000000
vt 0.638983 -1.466868 0.000000
vt -0.567368 -1.496026 0.000000
vt 0.494427 -1.521690 0.000000
vt -0.420332 -1.543801 0.000000
vt 0.345255 -1.562306 0.000000
vt -0.269371 -1.577162 0.000000
vt 0.192859 -1.588334 0.000000
vt -0.115896 -1.595797 0.000000
vt 0.038662 -1.599533 0.000000
vn 99.503078 9.956785 0.000000
vn 99.503078 9.956785 0.000000
vn 100.000000 0.000000 0.000000
vn 100.000000 0.000000 0.000000
vn 99.503078 -9.956785 0.000000
vn 99.503078 -9.956785 0.000000
vn 98.017249 -19.814614 0.000000
vn 98.017249 -19.814614 0.000000
vn 95.557281 -29.475517 0.000000
vn 95.557281 -29.475517 0.000000
vn 92.147621 -38.843480 0.000000
vn 92.147621 -38.843480 0.000000
vn 87.822157 -47.825398 0.000000
vn 87.822157 -47.825398 0.000000
vn 82.623877 -56.332006 0.000000
vn 82.623877 -56.332006 0.000000
vn 76.604444 -64.278761 0.000000
vn 76.604444 -64.278761 0.000000
vn 69.823682 -71.586685 0.000000
vn 69.823682 -71.586685 0.000000
vn 62.348980 -78.183148 0.000000
vn 62.348980 -78.183148 0.000000
vn 54.254626 -84.002592 0.000000
vn 54.254626 -84.002592 0.000000
vn 45.621066 -88.987181 0.000000
vn 45.621066 -88.987181 0.000000
vn 36.534102 -93.087375 0.000000
vn 36.534102 -93.087375 0.000000
vn 27.084047 -96.262425 0.000000
vn 27.084047 -96.262425 0.000000
vn 17.364818 -98.480775 0.000000
vn 17.364818 -98.480775 0.000000
vn 7.473009 -99.720380 0.000000
vn 7.473009 -99.720380 0.000000
vn -2.493069 -99.968918 0.000000
vn -2.493069 -99.968918 0.000000
vn -12.434370 -99.223921 0.000000
vn -12.434370 -99.223921 0.000000
vn -22.252093 -97.492791 0.000000
vn -22.252093 -97.492791 0.000000
vn -31.848665 -94.792735 0.000000
vn -31.848665 -94.792735 0.000000
vn -41.128710 -91.150585 0.000000
vn -41.128710 -91.150585 0.000000
vn -50.000000 -86.602540 0.000000
vn -50.000000 -86.602540 0.000000
vn -58.374367 -81.193801 0.000000
vn -58.374367 -81.193801 0.000000
vn -66.168584 -74.978120 0.000000
vn -66.168584 -74.978120 0.000000
vn -73.305187 -68.017274 0.000000
vn -73.305187 -68.017274 0.000000
vn -79.713251 -60.380441 0.000000
vn -79.713251 -60.380441 0.000000
vn -85.329088 -52.143520 0.000000
vn -85.329088 -52.143520 0.000000
vn -90.096887 -43.388374 0.000000
vn -90.096887 -43.388374 0.000000
vn -93.969262 -34.202014 0.000000
vn -93.969262 -34.202014 0.000000
vn -96.907729 -24.675740 0.000000
vn -96.907729 -24.675740 0.000000
vn -98.883083 -14.904227 0.000000
vn -98.883083 -14.904227 0.000000
vn -99.875692 -4.984589 0.000000
vn -99.875692 -4.984589 0.000000
vn -99.875692 4.984589 0.000000
vn -99.875692 4.984589 0.000000
vn -98.883083 14.904227 0.000000
vn -98.883083 14.904227 0.000000
vn -96.907729 24.675740 0.000000
vn -96.907729 24.675740 0.000000
vn -93.969262 34.202014 0.000000
vn -93.969262 34.202014 0.000000
vn -90.096887 43.388374 0.000000
vn -90.096887 43.388374 0.000000
vn -85.329088 52.143520 0.000000
vn -85.329088 52.143520 0.000000
vn -79.713251 60.380441 0.000000
vn -79.713251 60.380441 0.000000
vn -73.305187 68.017274 0.000000
vn -73.305187 68.017274 0.000000
vn -66.168584 74.978120 0.000000
vn -66.168584 74.978120 0.000000
vn -58.374367 81.193801 0.000000
vn -58.374367 81.193801 0.000000
vn -50.000000 86.602540 0.000000
vn -50.000000 86.602540 0.000000
vn -41.128710 91.150585 0.000000
vn -41.128710 91.150585 0.000000
vn -31.848665 94.792735 0.000000
vn -31.848665 94.792735 0.000000
vn -22.252093 97.492791 0.000000
vn -22.252093 97.492791 0.000000
vn -12.434370 99.223921 0.000000
vn -12.434370 99.223921 0.000000
vn -2.493069 99.968918 0.000000
vn -2.493069 99.968918 0.000000
vn 7.473009 99.720380 0.000000
vn 7.473009 99.720380 0.000000
vn 17.364818 98.480775 0.000000
vn 17.364818 98.480775 0.000000
vn 27.084047 96.262425 0.000000
vn 27.084047 96.262425 0.000000
vn 36.534102 93.087375 0.000000
vn 36.534102 93.087375 0.000000
vn 45.621066 88.987181 0.000000
vn 45.621066 88.987181 0.000000
vn 54.254626 84.002592 0.000000
vn 54.254626 84.002592 0.000000
vn 62.348980 78.183148 0.000000
vn 62.348980 78.183148 0.000000
vn 69.823682 71.586685 0.000000
vn 69.823682 71.586685 0.000000
vn 76.604444 64.278761 0.000000
vn 76.604444 64.278761 0.000000
vn 82.623877 56.332006 0.000000
vn 82.623877 56.332006 0.000000
vn 87.822157 47.825398 0.000000
vn 87.822157 47.825398 0.000000
vn 92.147621 38.843480 0.000000
vn 92.147621 38.843480 0.000000
vn 95.557281 29.475517 0.000000
vn 95.557281 29.475517 0.000000
vn 98.017249 19.814614 0.000000
vn 98.017249 19.814614 0.000000
vn 0.000000 0.000000 100.000000
vn 0.000000 0.000000 100.000000
vn 0.000000 0.000000 100.000000
vn 0.000000 0.000000 100.000000
vn 0.000000 0.000000 100.000000
vn 0.000000 0.000000 100.000000
vn 0.000000 0.000000 100.000000
vn 0.000000 0.000000 100.000000
vn 0.000000 0.000000 100.000000
vn 0.000000 0.000000 100.000000
vn 0.000000 0.000000 100.000000
vn 0.000000 0.000000 100.000000
vn 0.000000 0.000000 100.000000
vn 0.000000 0.000000 100.000000
vn 0.000000 0.000000 100.000000
vn 0.000000 0.000000 100.000000
vn 0.000000 0.000000 100.000000
vn 0.000000 0.000000 100.000000
vn 0.000000 0.000000 100.000000
vn 0.000000 0.000000 100.000000
vn 0.000000 0.000000 100.000000
vn 0.000000 0.000000 100.000000
vn 0.000000 0.000000 100.000000
vn 0.000000 0.000000 100.000000
vn 0.000000 0.000000 100.000000
vn 0.000000 0.000000 100.000000
vn 0.000000 0.000000 100.000000
vn 0.000000 0.000000 100.000000
vn 0.000000 0.000000 100.000000
vn 0.000000 0.000000 100.000000
vn 0.000000 0.000000 100.000000
vn 0.000000 0.000000 100.000000
vn 0.000000 0.000000 100.000000
vn 0.000000 0.000000 100.000000
vn 0.000000 0.000000 100.000000
vn 0.000000 0.000000 100.000000
vn 0.000000 0.000000 100.000000
vn 0.000000 0.000000 100.000000
vn 0.000000 0.000000 100.000000
vn 0.000000 0.000000 100.000000
vn 0.000000 0.000000 100.000000
vn 0.000000 0.000000 100.000000
vn 0.000000 0.000000 100.000000
vn 0.000000 0.000000 100.000000
vn 0.000000 0.000000 100.000000
vn 0.000000 0.000000 100.000000
vn 0.000000 0.000000 100.000000
vn 0.000000 0.000000 100.000000
vn 0.000000 0.000000 100.000000
vn 0.000000 0.000000 100.000000
vn 0.000000 0.000000 100.000000
vn 0.000000 0.000000 100.000000
vn 0.000000 0.000000 100.000000
vn 0.000000 0.000000 100.000000
vn 0.000000 0.000000 100.000000
vn 0.000000 0.000000 100.000000
vn 0.000000 0.000000 100.000000
vn 0.000000 0.000000 100.000000
vn 0.000000 0.000000 100.000000
vn 0.000000 0.000000 100.000000
vn 0.000000 0.000000 100.000000
vn 0.000000 0.000000 100.000000
vn 0.000000 0.000000 100.000000
vn -99.533163 9.651392 -0.000000
vn -99.533163 9.651392 -0.000000
vn -100.000000 0.000000 -0.000000
vn -100.000000 0.000000 -0.000000
vn -99.533163 -9.651392 0.000000
vn -99.533163 -9.651392 0.000000
vn -98.137013 -19.212672 0.000000
vn -98.137013 -19.212672 0.000000
vn -95.824583 -28.594568 0.000000
vn -95.824583 -28.594568 0.000000
vn -92.617465 -37.709484 0.000000
vn -92.617465 -37.709484 0.000000
vn -88.545603 -46.472317 0.000000
vn -88.545603 -46.472317 0.000000
vn -83.647014 -54.801251 0.000000
vn -83.647014 -54.801251 0.000000
vn -77.967435 -62.618520 0.000000
vn -77.967435 -62.618520 0.000000
vn -71.559896 -69.851137 0.000000
vn -71.559896 -69.851137 0.000000
vn -64.484221 -76.431572 0.000000
vn -64.484221 -76.431572 0.000000
vn -56.806475 -82.298387 0.000000
vn -56.806475 -82.298387 0.000000
vn -48.598341 -87.396803 0.000000
vn -48.598341 -87.396803 0.000000
vn -39.936458 -91.679220 0.000000
vn -39.936458 -91.679220 0.000000
vn -30.901699 -95.105652 0.000000
vn -30.901699 -95.105652 0.000000
vn -21.578420 -97.644108 0.000000
vn -21.578420 -97.644108 0.000000
vn -12.053668 -99.270887 0.000000
vn -12.053668 -99.270887 0.000000
vn -2.416375 -99.970801 0.000000
vn -2.416375 -99.970801 0.000000
vn 7.243480 -99.737315 0.000000
vn 7.243480 -99.737315 0.000000
vn 16.835704 -98.572608 0.000000
vn 16.835704 -98.572608 0.000000
vn 26.270738 -96.487555 0.000000
vn 26.270738 -96.487555 0.000000
vn 35.460489 -93.501624 0.000000
vn 35.460489 -93.501624 0.000000
vn 44.319155 -89.642694 0.000000
vn 44.319155 -89.642694 0.000000
vn 52.764024 -84.946794 0.000000
vn 52.764024 -84.946794 0.000000
vn 60.716251 -79.457768 0.000000
vn 60.716251 -79.457768 0.000000
vn 68.101586 -73.226867 0.000000
vn 68.101586 -73.226867 0.000000
vn 74.851075 -66.312266 0.000000
vn 74.851075 -66.312266 0.000000
vn 80.901699 -58.778525 0.000000
vn 80.901699 -58.778525 0.000000
vn 86.196967 -50.695985 0.000000
vn 86.196967 -50.695985 0.000000
vn 90.687436 -42.140111 0.000000
vn 90.687436 -42.140111 0.000000
vn 94.331181 -33.190785 0.000000
vn 94.331181 -33.190785 0.000000
vn 97.094182 -23.931566 0.000000
vn 97.094182 -23.931566 0.000000
vn 98.950640 -14.448905 0.000000
vn 98.950640 -14.448905 0.000000
vn 99.883223 -4.831338 0.000000
vn 99.883223 -4.831338 0.000000
vn 99.883223 4.831338 0.000000
vn 99.883223 4.831338 0.000000
vn 98.950640 14.448905 0.000000
vn 98.950640 14.448905 0.000000
vn 97.094182 23.931566 0.000000
vn 97.094182 23.931566 0.000000
vn 94.331181 33.190785 0.000000
vn 94.331181 33.190785 0.000000
vn 90.687436 42.140111 0.000000
vn 90.687436 42.140111 0.000000
vn 86.196967 50.695985 0.000000
vn 86.196967 50.695985 0.000000
vn 80.901699 58.778525 0.000000
vn 80.901699 58.778525 0.000000
vn 74.851075 66.312266 0.000000
vn 74.851075 66.312266 0.000000
vn 68.101586 73.226867 0.000000
vn 68.101586 73.226867 0.000000
vn 60.716251 79.457768 0.000000
vn 60.716251 79.457768 0.000000
vn 52.764024 84.946794 0.000000
vn 52.764024 84.946794 0.000000
vn 44.319155 89.642694 0.000000
vn 44.319155 89.642694 0.000000
vn 35.460489 93.501624 0.000000
vn 35.460489 93.501624 0.000000
vn 26.270738 96.487555 0.000000
vn 26.270738 96.487555 0.000000
vn 16.835704 98.572608 0.000000
vn 16.835704 98.572608 0.000000
vn 7.243480 99.737315 0.000000
vn 7.243480 99.737315 0.000000
vn -2.416375 99.970801 -0.000000
vn -2.416375 99.970801 -0.000000
vn -12.053668 99.270887 -0.000000
vn -12.053668 99.270887 -0.000000
vn -21.578420 97.644108 -0.000000
vn -21.578420 97.644108 -0.000000
vn -30.901699 95.105652 -0.000000
vn -30.901699 95.105652 -0.000000
vn -39.936458 91.679220 -0.000000
vn -39.936458 91.679220 -0.000000
vn -48.598341 87.396803 -0.000000
vn -48.598341 87.396803 -0.000000
vn -56.806475 82.298387 -0.000000
vn -56.806475 82.298387 -0.000000
vn -64.484221 76.431572 -0.000000
vn -64.484221 76.431572 -0.000000
vn -71.559896 69.851137 -0.000000
vn -71.559896 69.851137 -0.000000
vn -77.967435 62.618520 -0.000000
vn -77.967435 62.618520 -0.000000
vn -83.647014 54.801251 -0.000000
vn -83.647014 54.801251 -0.000000
vn -88.545603 46.472317 -0.000000
vn -88.545603 46.472317 -0.000000
vn -92.617465 37.709484 -0.000000
vn -92.617465 37.709484 -0.000000
vn -95.824583 28.594568 -0.000000
vn -95.824583 28.594568 -0.000000
vn -98.137013 19.212672 -0.000000
vn -98.137013 19.212672 -0.000000
vn 0.000000 0.000000 100.000000
vn 0.000000 0.000000 100.000000
vn 0.000000 0.000000 100.000000
vn 0.000000 0.000000 100.000000
vn 0.000000 0.000000 100.000000
vn 0.000000 0.000000 100.000000
vn 0.000000 0.000000 100.000000
vn 0.000000 0.000000 100.000000
vn 0.000000 0.000000 100.000000
vn 0.000000 0.000000 100.000000
vn 0.000000 0.000000 100.000000
vn 0.000000 0.000000 100.000000
vn 0.000000 0.000000 100.000000
vn 0.000000 0.000000 100.000000
vn 0.000000 0.000000 100.000000
vn 0.000000 0.000000 100.000000
vn 0.000000 0.000000 100.000000
vn 0.000000 0.000000 100.000000
vn 0.000000 0.000000 100.000000
vn 0.000000 0.000000 100.000000
vn 0.000000 0.000000 100.000000
vn 0.000000 0.000000 100.000000
vn 0.000000 0.000000 100.000000
vn 0.000000 0.000000 100.000000
vn 0.000000 0.000000 100.000000
vn 0.000000 0.000000 100.000000
vn 0.000000 0.000000 100.000000
vn 0.000000 0.000000 100.000000
vn 0.000000 0.000000 100.000000
vn 0.000000 0.000000 100.000000
vn 0.000000 0.000000 100.000000
vn 0.000000 0.000000 100.000000
vn 0.000000 0.000000 100.000000
vn 0.000000 0.000000 100.000000
vn 0.000000 0.000000 100.000000
vn 0.000000 0.000000 100.000000
vn 0.000000 0.000000 100.000000
vn 0.000000 0.000000 100.000000
vn 0.000000 0.000000 100.000000
vn 0.000000 0.000000 100.000000
vn 0.000000 0.000000 100.000000
vn 0.000000 0.000000 100.000000
vn 0.000000 0.000000 100.000000
vn 0.000000 0.000000 100.000000
vn 0.000000 0.000000 100.000000
vn 0.000000 0.000000 100.000000
vn 0.000000 0.000000 100.000000
vn 0.000000 0.000000 100.000000
vn 0.000000 0.000000 100.000000
vn 0.000000 0.000000 100.000000
vn 0.000000 0.000000 100.000000
vn 0.000000 0.000000 100.000000
vn 0.000000 0.000000 100.000000
vn 0.000000 0.000000 100.000000
vn 0.000000 0.000000 100.000000
vn 0.000000 0.000000 100.000000
vn 0.000000 0.000000 100.000000
vn 0.000000 0.000000 100.000000
vn 0.000000 0.000000 100.000000
vn 0.000000 0.000000 100.000000
vn 0.000000 0.000000 100.000000
vn 0.000000 0.000000 100.000000
vn 0.000000 0.000000 100.000000
vn 0.000000 0.000000 100.000000
vn 0.000000 0.000000 100.000000
vn 0.000000 0.000000 100.000000
vn 0.000000 0.000000 100.000000
vn 0.000000 0.000000 100.000000
vn 0.000000 0.000000 100.000000
vn 0.000000 0.000000 100.000000
vn 0.000000 0.000000 100.000000
vn 0.000000 0.000000 100.000000
vn 0.000000 0.000000 100.000000
vn 0.000000 0.000000 100.000000
vn 0.000000 0.000000 100.000000
vn 0.000000 0.000000 100.000000
vn 0.000000 0.000000 100.000000
vn 0.000000 0.000000 100.000000
vn 0.000000 0.000000 100.000000
vn 0.000000 0.000000 100.000000
vn 0.000000 0.000000 100.000000
vn 0.000000 0.000000 100.000000
vn 0.000000 0.000000 100.000000
vn 0.000000 0.000000 100.000000
vn 0.000000 0.000000 100.000000
vn 0.000000 0.000000 100.000000
vn 0.000000 0.000000 100.000000
vn 0.000000 0.000000 100.000000
vn 0.000000 0.000000 100.000000
vn 0.000000 0.000000 100.000000
vn 0.000000 0.000000 100.000000
vn 0.000000 0.000000 100.000000
vn 0.000000 0.000000 100.000000
vn 0.000000 0.000000 100.000000
vn 0.000000 0.000000 100.000000
vn 0.000000 0.000000 100.000000
vn 0.000000 0.000000 100.000000
vn 0.000000 0.000000 100.000000
vn 0.000000 0.000000 100.000000
vn 0.000000 0.000000 100.000000
vn 0.000000 0.000000 100.000000
vn 0.000000 0.000000 100.000000
vn 0.000000 0.000000 100.000000
vn 0.000000 0.000000 100.000000
vn 0.000000 0.000000 100.000000
vn 0.000000 0.000000 100.000000
vn 0.000000 0.000000 100.000000
vn 0.000000 0.000000 100.000000
vn 0.000000 0.000000 100.000000
vn 0.000000 0.000000 100.000000
vn 0.000000 0.000000 100.000000
vn 0.000000 0.000000 100.000000
vn 0.000000 0.000000 100.000000
vn 0.000000 0.000000 100.000000
vn 0.000000 0.000000 100.000000
vn 0.000000 0.000000 100.000000
vn 0.000000 0.000000 100.000000
vn 0.000000 0.000000 100.000000
vn 0.000000 0.000000 100.000000
vn 0.000000 0.000000 100.000000
vn 0.000000 0.000000 100.000000
vn 0.000000 0.000000 100.000000
vn 0.000000 0.000000 100.000000
vn 0.000000 0.000000 100.000000
vn 0.000000 0.000000 100.000000
vn 0.000000 0.000000 100.000000
vn 0.000000 0.000000 100.000000
vn 0.000000 0.000000 100.000000
vn 0.000000 0.000000 -100.000000
vn 0.000000 0.000000 -100.000000
vn 0.000000 0.000000 -100.000000
vn 0.000000 0.000000 -100.000000
vn 0.000000 0.000000 -100.000000
vn 0.000000 0.000000 -100.000000
vn 0.000000 0.000000 -100.000000
vn 0.000000 0.000000 -100.000000
vn 0.000000 0.000000 -100.000000
vn 0.000000 0.000000 -100.000000
vn 0.000000 0.000000 -100.000000
vn 0.000000 0.000000 -100.000000
vn 0.000000 0.000000 -100.000000
vn 0.000000 0.000000 -100.000000
vn 0.000000 0.000000 -100.000000
vn 0.000000 0.000000 -100.000000
vn 0.000000 0.000000 -100.000000
vn 0.000000 0.000000 -100.000000
vn 0.000000 0.000000 -100.000000
vn 0.000000 0.000000 -100.000000
vn 0.000000 0.000000 -100.000000
vn 0.000000 0.000000 -100.000000
vn 0.000000 0.000000 -100.000000
vn 0.000000 0.000000 -100.000000
vn 0.000000 0.000000 -100.000000
vn 0.000000 0.000000 -100.000000
vn 0.000000 0.000000 -100.000000
vn 0.000000 0.000000 -100.000000
vn 0.000000 0.000000 -100.000000
vn 0.000000 0.000000 -100.000000
vn 0.000000 0.000000 -100.000000
vn 0.000000 0.000000 -100.000000
vn 0.000000 0.000000 -100.000000
vn 0.000000 0.000000 -100.000000
vn 0.000000 0.000000 -100.000000
vn 0.000000 0.000000 -100.000000
vn 0.000000 0.000000 -100.000000
vn 0.000000 0.000000 -100.000000
vn 0.000000 0.000000 -100.000000
vn 0.000000 0.000000 -100.000000
vn 0.000000 0.000000 -100.000000
vn 0.000000 0.000000 -100.000000
vn 0.000000 0.000000 -100.000000
vn 0.000000 0.000000 -100.000000
vn 0.000000 0.000000 -100.000000
vn 0.000000 0.000000 -100.000000
vn 0.000000 0.000000 -100.000000
vn 0.000000 0.000000 -100.000000
vn 0.000000 0.000000 -100.000000
vn 0.000000 0.000000 -100.000000
vn 0.000000 0.000000 -100.000000
vn 0.000000 0.000000 -100.000000
vn 0.000000 0.000000 -100.000000
vn 0.000000 0.000000 -100.000000
vn 0.000000 0.000000 -100.000000
vn 0.000000 0.000000 -100.000000
vn 0.000000 0.000000 -100.000000
vn 0.000000 0.000000 -100.000000
vn 0.000000 0.000000 -100.000000
vn 0.000000 0.000000 -100.000000
vn 0.000000 0.000000 -100.000000
vn 0.000000 0.000000 -100.000000
vn 0.000000 0.000000 -100.000000
vn 0.000000 0.000000 -100.000000
vn 0.000000 0.000000 -100.000000
usemtl Steel_-_Satin
f 2/1/1 126/2/2 1/3/3
f 1/3/3 126/2/2 64/4/4
f 1/5/3 64/6/4 63/7/5
f 63/7/5 64/6/4 65/8/6
f 63/7/5 65/8/6 62/9/7
f 62/9/7 65/8/6 66/10/8
f 62/9/7 66/10/8 61/11/9
f 61/11/9 66/10/8 67/12/10
f 61/11/9 67/12/10 60/13/11
f 60/13/11 67/12/10 68/14/12
f 60/13/11 68/14/12 59/15/13
f 59/15/13 68/14/12 69/16/14
f 59/15/13 69/16/14 58/17/15
f 58/17/15 69/16/14 70/18/16
f 58/17/15 70/18/16 57/19/17
f 57/19/17 70/18/16 71/20/18
f 57/19/17 71/20/18 56/21/19
f 56/21/19 71/20/18 72/22/20
f 56/21/19 72/22/20 55/23/21
f 55/23/21 72/22/20 73/24/22
f 55/23/21 73/24/22 54/25/23
f 54/25/23 73/24/22 74/26/24
f 54/25/23 74/26/24 53/27/25
f 53/27/25 74/26/24 75/28/26
f 53/27/25 75/28/26 52/29/27
f 52/29/27 75/28/26 76/30/28
f 52/29/27 76/30/28 51/31/29
f 51/31/29 76/30/28 77/32/30
f 51/31/29 77/32/30 50/33/31
f 50/33/31 77/32/30 78/34/32
f 50/33/31 78/34/32 49/35/33
f 49/35/33 78/34/32 79/36/34
f 49/35/33 79/36/34 48/37/35
f 48/37/35 79/36/34 80/38/36
f 48/37/35 80/38/36 47/39/37
f 47/39/37 80/38/36 81/40/38
f 47/39/37 81/40/38 46/41/39
f 46/41/39 81/40/38 82/42/40
f 46/41/39 82/42/40 45/43/41
f 45/43/41 82/42/40 83/44/42
f 45/43/41 83/44/42 44/45/43
f 44/45/43 83/44/42 84/46/44
f 44/45/43 84/46/44 43/47/45
f 43/47/45 84/46/44 85/48/46
f 43/47/45 85/48/46 42/49/47
f 42/49/47 85/48/46 86/50/48
f 42/49/47 86/50/48 41/51/49
f 41/51/49 86/50/48 87/52/50
f 41/51/49 87/52/50 40/53/51
f 40/53/51 87/52/50 88/54/52
f 40/53/51 88/54/52 39/55/53
f 39/55/53 88/54/52 89/56/54
f 39/55/53 89/56/54 38/57/55
f 38/57/55 89/56/54 90/58/56
f 38/57/55 90/58/56 37/59/57
f 37/59/57 90/58/56 91/60/58
f 37/59/57 91/60/58 36/61/59
f 36/61/59 91/60/58 92/62/60
f 36/61/59 92/62/60 35/63/61
f 35/63/61 92/62/60 93/64/62
f 35/63/61 93/64/62 34/65/63
f 34/65/63 93/64/62 94/66/64
f 34/65/63 94/66/64 33/67/65
f 33/67/65 94/66/64 95/68/66
f 33/67/65 95/68/66 32/69/67
f 32/69/67 95/68/66 96/70/68
f 32/69/67 96/70/68 31/71/69
f 31/71/69 96/70/68 97/72/70
f 31/71/69 97/72/70 30/73/71
f 30/73/71 97/72/70 98/74/72
f 30/73/71 98/74/72 29/75/73
f 29/75/73 98/74/72 99/76/74
f 29/75/73 99/76/74 28/77/75
f 28/77/75 99/76/74 100/78/76
f 28/77/75 100/78/76 27/79/77
f 27/79/77 100/78/76 101/80/78
f 27/79/77 101/80/78 26/81/79
f 26/81/79 101/80/78 102/82/80
f 26/81/79 102/82/80 25/83/81
f 25/83/81 102/82/80 103/84/82
f 25/83/81 103/84/82 24/85/83
f 24/85/83 103/84/82 104/86/84
f 24/85/83 104/86/84 23/87/85
f 23/87/85 104/86/84 105/88/86
f 23/87/85 105/88/86 22/89/87
f 22/89/87 105/88/86 106/90/88
f 22/89/87 106/90/88 21/91/89
f 21/91/89 106/90/88 107/92/90
f 21/91/89 107/92/90 20/93/91
f 20/93/91 107/92/90 108/94/92
f 20/93/91 108/94/92 19/95/93
f 19/95/93 108/94/92 109/96/94
f 19/95/93 109/96/94 18/97/95
f 18/97/95 109/96/94 110/98/96
f 18/97/95 110/98/96 17/99/97
f 17/99/97 110/98/96 111/100/98
f 17/99/97 111/100/98 16/101/99
f 16/101/99 111/100/98 112/102/100
f 16/101/99 112/102/100 15/103/101
f 15/103/101 112/102/100 113/104/102
f 15/103/101 113/104/102 14/105/103
f 14/105/103 113/104/102 114/106/104
f 14/105/103 114/106/104 13/107/105
f 13/107/105 114/106/104 115/108/106
f 13/107/105 115/108/106 12/109/107
f 12/109/107 115/108/106 116/110/108
f 12/109/107 116/110/108 11/111/109
f 11/111/109 116/110/108 117/112/110
f 11/111/109 117/112/110 10/113/111
f 10/113/111 117/112/110 118/114/112
f 10/113/111 118/114/112 9/115/113
f 9/115/113 118/114/112 119/116/114
f 9/115/113 119/116/114 8/117/115
f 8/117/115 119/116/114 120/118/116
f 8/117/115 120/118/116 7/119/117
f 7/119/117 120/118/116 121/120/118
f 7/119/117 121/120/118 6/121/119
f 6/121/119 121/120/118 122/122/120
f 6/121/119 122/122/120 5/123/121
f 5/123/121 122/122/120 123/124/122
f 5/123/121 123/124/122 4/125/123
f 4/125/123 123/124/122 124/126/124
f 4/125/123 124/126/124 3/127/125
f 3/127/125 124/126/124 125/128/126
f 3/127/125 125/128/126 2/1/1
f 2/1/1 125/128/126 126/2/2
f 126/129/127 86/130/128 64/131/129
f 64/131/129 86/130/128 85/132/130
f 64/131/129 85/132/130 84/133/131
f 125/134/132 97/135/133 126/129/127
f 126/129/127 97/135/133 96/136/134
f 126/129/127 96/136/134 95/137/135
f 97/135/133 125/134/132 98/138/136
f 98/138/136 125/134/132 124/139/137
f 98/138/136 124/139/137 99/140/138
f 99/140/138 124/139/137 123/141/139
f 99/140/138 123/141/139 100/142/140
f 100/142/140 123/141/139 122/143/141
f 100/142/140 122/143/141 101/144/142
f 101/144/142 122/143/141 121/145/143
f 101/144/142 121/145/143 102/146/144
f 102/146/144 121/145/143 120/147/145
f 102/146/144 120/147/145 103/148/146
f 103/148/146 120/147/145 119/149/147
f 103/148/146 119/149/147 104/150/148
f 104/150/148 119/149/147 118/151/149
f 104/150/148 118/151/149 105/152/150
f 105/152/150 118/151/149 117/153/151
f 105/152/150 117/153/151 106/154/152
f 106/154/152 117/153/151 116/155/153
f 106/154/152 116/155/153 107/156/154
f 107/156/154 116/155/153 115/157/155
f 107/156/154 115/157/155 108/158/156
f 108/158/156 115/157/155 114/159/157
f 108/158/156 114/159/157 109/160/158
f 109/160/158 114/159/157 113/161/159
f 109/160/158 113/161/159 110/162/160
f 110/162/160 113/161/159 112/163/161
f 110/162/160 112/163/161 111/164/162
f 95/137/135 94/165/163 126/129/127
f 126/129/127 94/165/163 93/166/164
f 126/129/127 93/166/164 92/167/165
f 92/167/165 91/168/166 126/129/127
f 126/129/127 91/168/166 90/169/167
f 126/129/127 90/169/167 89/170/168
f 89/170/168 88/171/169 126/129/127
f 126/129/127 88/171/169 87/172/170
f 126/129/127 87/172/170 86/130/128
f 84/133/131 83/173/171 64/131/129
f 64/131/129 83/173/171 82/174/172
f 64/131/129 82/174/172 81/175/173
f 81/175/173 80/176/174 64/131/129
f 64/131/129 80/176/174 79/177/175
f 64/131/129 79/177/175 78/178/176
f 78/178/176 77/179/177 64/131/129
f 64/131/129 77/179/177 76/180/178
f 64/131/129 76/180/178 75/181/179
f 75/181/179 74/182/180 64/131/129
f 64/131/129 74/182/180 73/183/181
f 64/131/129 73/183/181 72/184/182
f 72/184/182 71/185/183 64/131/129
f 64/131/129 71/185/183 70/186/184
f 64/131/129 70/186/184 69/187/185
f 69/187/185 68/188/186 64/131/129
f 64/131/129 68/188/186 67/189/187
f 64/131/129 67/189/187 66/190/188
f 66/190/188 65/191/189 64/131/129
f 128/192/190 256/193/191 127/194/192
f 127/194/192 256/193/191 192/195/193
f 127/196/192 192/197/193 191/198/194
f 191/198/194 192/197/193 193/199/195
f 191/198/194 193/199/195 190/200/196
f 190/200/196 193/199/195 194/201/197
f 190/200/196 194/201/197 189/202/198
f 189/202/198 194/201/197 195/203/199
f 189/202/198 195/203/199 188/204/200
f 188/204/200 195/203/199 196/205/201
f 188/204/200 196/205/201 187/206/202
f 187/206/202 196/205/201 197/207/203
f 187/206/202 197/207/203 186/208/204
f 186/208/204 197/207/203 198/209/205
f 186/208/204 198/209/205 185/210/206
f 185/210/206 198/209/205 199/211/207
f 185/210/206 199/211/207 184/212/208
f 184/212/208 199/211/207 200/213/209
f 184/212/208 200/213/209 183/214/210
f 183/214/210 200/213/209 201/215/211
f 183/214/210 201/215/211 182/216/212
f 182/216/212 201/215/211 202/217/213
f 182/216/212 202/217/213 181/218/214
f 181/218/214 202/217/213 203/219/215
f 181/218/214 203/219/215 180/220/216
f 180/220/216 203/219/215 204/221/217
f 180/220/216 204/221/217 179/222/218
f 179/222/218 204/221/217 205/223/219
f 179/222/218 205/223/219 178/224/220
f 178/224/220 205/223/219 206/225/221
f 178/224/220 206/225/221 177/226/222
f 177/226/222 206/225/221 207/227/223
f 177/226/222 207/227/223 176/228/224
f 176/228/224 207/227/223 208/229/225
f 176/228/224 208/229/225 175/230/226
f 175/230/226 208/229/225 209/231/227
f 175/230/226 209/231/227 174/232/228
f 174/232/228 209/231/227 210/233/229
f 174/232/228 210/233/229 173/234/230
f 173/234/230 210/233/229 211/235/231
f 173/234/230 211/235/231 172/236/232
f 172/236/232 211/235/231 212/237/233
f 172/236/232 212/237/233 171/238/234
f 171/238/234 212/237/233 213/239/235
f 171/238/234 213/239/235 170/240/236
f 170/240/236 213/239/235 214/241/237
f 170/240/236 214/241/237 169/242/238
f 169/242/238 214/241/237 215/243/239
f 169/242/238 215/243/239 168/244/240
f 168/244/240 215/243/239 216/245/241
f 168/244/240 216/245/241 167/246/242
f 167/246/242 216/245/241 217/247/243
f 167/246/242 217/247/243 166/248/244
f 166/248/244 217/247/243 218/249/245
f 166/248/244 218/249/245 165/250/246
f 165/250/246 218/249/245 219/251/247
f 165/250/246 219/251/247 164/252/248
f 164/252/248 219/251/247 220/253/249
f 164/252/248 220/253/249 163/254/250
f 163/254/250 220/253/249 221/255/251
f 163/254/250 221/255/251 162/256/252
f 162/256/252 221/255/251 222/257/253
f 162/256/252 222/257/253 161/258/254
f 161/258/254 222/257/253 223/259/255
f 161/258/254 223/259/255 160/260/256
f 160/260/256 223/259/255 224/261/257
f 160/260/256 224/261/257 159/262/258
f 159/262/258 224/261/257 225/263/259
f 159/262/258 225/263/259 158/264/260
f 158/264/260 225/263/259 226/265/261
f 158/264/260 226/265/261 157/266/262
f 157/266/262 226/265/261 227/267/263
f 157/266/262 227/267/263 156/268/264
f 156/268/264 227/267/263 228/269/265
f 156/268/264 228/269/265 155/270/266
f 155/270/266 228/269/265 229/271/267
f 155/270/266 229/271/267 154/272/268
f 154/272/268 229/271/267 230/273/269
f 154/272/268 230/273/269 153/274/270
f 153/274/270 230/273/269 231/275/271
f 153/274/270 231/275/271 152/276/272
f 152/276/272 231/275/271 232/277/273
f 152/276/272 232/277/273 151/278/274
f 151/278/274 232/277/273 233/279/275
f 151/278/274 233/279/275 150/280/276
f 150/280/276 233/279/275 234/281/277
f 150/280/276 234/281/277 149/282/278
f 149/282/278 234/281/277 235/283/279
f 149/282/278 235/283/279 148/284/280
f 148/284/280 235/283/279 236/285/281
f 148/284/280 236/285/281 147/286/282
f 147/286/282 236/285/281 237/287/283
f 147/286/282 237/287/283 146/288/284
f 146/288/284 237/287/283 238/289/285
f 146/288/284 238/289/285 145/290/286
f 145/290/286 238/289/285 239/291/287
f 145/290/286 239/291/287 144/292/288
f 144/292/288 239/291/287 240/293/289
f 144/292/288 240/293/289 143/294/290
f 143/294/290 240/293/289 241/295/291
f 143/294/290 241/295/291 142/296/292
f 142/296/292 241/295/291 242/297/293
f 142/296/292 242/297/293 141/298/294
f 141/298/294 242/297/293 243/299/295
f 141/298/294 243/299/295 140/300/296
f 140/300/296 243/299/295 244/301/297
f 140/300/296 244/301/297 139/302/298
f 139/302/298 244/301/297 245/303/299
f 139/302/298 245/303/299 138/304/300
f 138/304/300 245/303/299 246/305/301
f 138/304/300 246/305/301 137/306/302
f 137/306/302 246/305/301 247/307/303
f 137/306/302 247/307/303 136/308/304
f 136/308/304 247/307/303 248/309/305
f 136/308/304 248/309/305 135/310/306
f 135/310/306 248/309/305 249/311/307
f 135/310/306 249/311/307 134/312/308
f 134/312/308 249/311/307 250/313/309
f 134/312/308 250/313/309 133/314/310
f 133/314/310 250/313/309 251/315/311
f 133/314/310 251/315/311 132/316/312
f 132/316/312 251/315/311 252/317/313
f 132/316/312 252/317/313 131/318/314
f 131/318/314 252/317/313 253/319/315
f 131/318/314 253/319/315 130/320/316
f 130/320/316 253/319/315 254/321/317
f 130/320/316 254/321/317 129/322/318
f 129/322/318 254/321/317 255/323/319
f 129/322/318 255/323/319 128/192/190
f 128/192/190 255/323/319 256/193/191
f 63/324/320 128/325/321 1/326/322
f 1/326/322 128/325/321 127/327/323
f 1/326/322 127/327/323 191/328/324
f 128/325/321 63/324/320 129/329/325
f 129/329/325 63/324/320 62/330/326
f 129/329/325 62/330/326 130/331/327
f 130/331/327 62/330/326 61/332/328
f 130/331/327 61/332/328 131/333/329
f 131/333/329 61/332/328 60/334/330
f 131/333/329 60/334/330 132/335/331
f 132/335/331 60/334/330 59/336/332
f 132/335/331 59/336/332 133/337/333
f 133/337/333 59/336/332 58/338/334
f 133/337/333 58/338/334 134/339/335
f 134/339/335 58/338/334 57/340/336
f 134/339/335 57/340/336 135/341/337
f 135/341/337 57/340/336 56/342/338
f 135/341/337 56/342/338 136/343/339
f 136/343/339 56/342/338 55/344/340
f 136/343/339 55/344/340 137/345/341
f 137/345/341 55/344/340 54/346/342
f 137/345/341 54/346/342 138/347/343
f 138/347/343 54/346/342 53/348/344
f 138/347/343 53/348/344 139/349/345
f 139/349/345 53/348/344 52/350/346
f 139/349/345 52/350/346 140/351/347
f 140/351/347 52/350/346 51/352/348
f 140/351/347 51/352/348 141/353/349
f 141/353/349 51/352/348 50/354/350
f 141/353/349 50/354/350 142/355/351
f 142/355/351 50/354/350 49/356/352
f 142/355/351 49/356/352 143/357/353
f 143/357/353 49/356/352 48/358/354
f 143/357/353 48/358/354 144/359/355
f 144/359/355 48/358/354 47/360/356
f 144/359/355 47/360/356 145/361/357
f 145/361/357 47/360/356 46/362/358
f 145/361/357 46/362/358 146/363/359
f 146/363/359 46/362/358 45/364/360
f 146/363/359 45/364/360 147/365/361
f 147/365/361 45/364/360 44/366/362
f 147/365/361 44/366/362 148/367/363
f 148/367/363 44/366/362 43/368/364
f 148/367/363 43/368/364 149/369/365
f 149/369/365 43/368/364 42/370/366
f 149/369/365 42/370/366 150/371/367
f 150/371/367 42/370/366 41/372/368
f 150/371/367 41/372/368 151/373/369
f 151/373/369 41/372/368 40/374/370
f 151/373/369 40/374/370 152/375/371
f 152/375/371 40/374/370 39/376/372
f 152/375/371 39/376/372 153/377/373
f 153/377/373 39/376/372 38/378/374
f 153/377/373 38/378/374 154/379/375
f 154/379/375 38/378/374 37/380/376
f 154/379/375 37/380/376 155/381/377
f 155/381/377 37/380/376 36/382/378
f 155/381/377 36/382/378 156/383/379
f 156/383/379 36/382/378 35/384/380
f 156/383/379 35/384/380 157/385/381
f 157/385/381 35/384/380 34/386/382
f 157/385/381 34/386/382 158/387/383
f 158/387/383 34/386/382 33/388/384
f 158/387/383 33/388/384 159/389/385
f 159/389/385 33/388/384 160/390/386
f 160/390/386 33/388/384 32/391/387
f 160/390/386 32/391/387 161/392/388
f 161/392/388 32/391/387 31/393/389
f 161/392/388 31/393/389 162/394/390
f 162/394/390 31/393/389 30/395/391
f 162/394/390 30/395/391 163/396/392
f 163/396/392 30/395/391 29/397/393
f 163/396/392 29/397/393 164/398/394
f 164/398/394 29/397/393 28/399/395
f 164/398/394 28/399/395 165/400/396
f 165/400/396 28/399/395 27/401/397
f 165/400/396 27/401/397 166/402/398
f 166/402/398 27/401/397 26/403/399
f 166/402/398 26/403/399 167/404/400
f 167/404/400 26/403/399 25/405/401
f 167/404/400 25/405/401 168/406/402
f 168/406/402 25/405/401 24/407/403
f 168/406/402 24/407/403 169/408/404
f 169/408/404 24/407/403 23/409/405
f 169/408/404 23/409/405 170/410/406
f 170/410/406 23/409/405 22/411/407
f 170/410/406 22/411/407 171/412/408
f 171/412/408 22/411/407 21/413/409
f 171/412/408 21/413/409 172/414/410
f 172/414/410 21/413/409 20/415/411
f 172/414/410 20/415/411 173/416/412
f 173/416/412 20/415/411 19/417/413
f 173/416/412 19/417/413 174/418/414
f 174/418/414 19/417/413 18/419/415
f 174/418/414 18/419/415 175/420/416
f 175/420/416 18/419/415 17/421/417
f 175/420/416 17/421/417 176/422/418
f 176/422/418 17/421/417 16/423/419
f 176/422/418 16/423/419 177/424/420
f 177/424/420 16/423/419 15/425/421
f 177/424/420 15/425/421 178/426/422
f 178/426/422 15/425/421 14/427/423
f 178/426/422 14/427/423 179/428/424
f 179/428/424 14/427/423 13/429/425
f 179/428/424 13/429/425 180/430/426
f 180/430/426 13/429/425 12/431/427
f 180/430/426 12/431/427 181/432/428
f 181/432/428 12/431/427 11/433/429
f 181/432/428 11/433/429 182/434/430
f 182/434/430 11/433/429 10/435/431
f 182/434/430 10/435/431 183/436/432
f 183/436/432 10/435/431 9/437/433
f 183/436/432 9/437/433 184/438/434
f 184/438/434 9/437/433 8/439/435
f 184/438/434 8/439/435 185/440/436
f 185/440/436 8/439/435 7/441/437
f 185/440/436 7/441/437 186/442/438
f 186/442/438 7/441/437 6/443/439
f 186/442/438 6/443/439 187/444/440
f 187/444/440 6/443/439 5/445/441
f 187/444/440 5/445/441 188/446/442
f 188/446/442 5/445/441 4/447/443
f 188/446/442 4/447/443 189/448/444
f 189/448/444 4/447/443 3/449/445
f 189/448/444 3/449/445 190/450/446
f 190/450/446 3/449/445 2/451/447
f 190/450/446 2/451/447 191/328/324
f 191/328/324 2/451/447 1/326/322
f 193/452/448 192/453/449 224/454/450
f 224/454/450 192/453/449 256/455/451
f 224/454/450 256/455/451 255/456/452
f 255/456/452 254/457/453 224/454/450
f 224/454/450 254/457/453 253/458/454
f 224/454/450 253/458/454 252/459/455
f 252/459/455 251/460/456 224/454/450
f 224/454/450 251/460/456 250/461/457
f 224/454/450 250/461/457 249/462/458
f 249/462/458 248/463/459 224/454/450
f 224/454/450 248/463/459 247/464/460
f 224/454/450 247/464/460 246/465/461
f 246/465/461 245/466/462 224/454/450
f 224/454/450 245/466/462 244/467/463
f 224/454/450 244/467/463 243/468/464
f 243/468/464 242/469/465 224/454/450
f 224/454/450 242/469/465 241/470/466
f 224/454/450 241/470/466 240/471/467
f 240/471/467 239/472/468 224/454/450
f 224/454/450 239/472/468 238/473/469
f 224/454/450 238/473/469 237/474/470
f 237/474/470 236/475/471 224/454/450
f 224/454/450 236/475/471 235/476/472
f 224/454/450 235/476/472 234/477/473
f 234/477/473 233/478/474 224/454/450
f 224/454/450 233/478/474 232/479/475
f 224/454/450 232/479/475 231/480/476
f 231/480/476 230/481/477 224/454/450
f 224/454/450 230/481/477 229/482/478
f 224/454/450 229/482/478 228/483/479
f 228/483/479 227/484/480 224/454/450
f 224/454/450 227/484/480 225/485/481
f 225/485/481 227/484/480 226/486/482
f 224/454/450 223/487/483 193/452/448
f 193/452/448 223/487/483 194/488/484
f 194/488/484 223/487/483 222/489/485
f 194/488/484 222/489/485 195/490/486
f 195/490/486 222/489/485 221/491/487
f 195/490/486 221/491/487 196/492/488
f 196/492/488 221/491/487 220/493/489
f 196/492/488 220/493/489 197/494/490
f 197/494/490 220/493/489 219/495/491
f 197/494/490 219/495/491 198/496/492
f 198/496/492 219/495/491 218/497/493
f 198/496/492 218/497/493 199/498/494
f 199/498/494 218/497/493 217/499/495
f 199/498/494 217/499/495 200/500/496
f 200/500/496 217/499/495 216/501/497
f 200/500/496 216/501/497 201/502/498
f 201/502/498 216/501/497 215/503/499
f 201/502/498 215/503/499 202/504/500
f 202/504/500 215/503/499 214/505/501
f 202/504/500 214/505/501 203/506/502
f 203/506/502 214/505/501 213/507/503
f 203/506/502 213/507/503 204/508/504
f 204/508/504 213/507/503 212/509/505
f 204/508/504 212/509/505 205/510/506
f 205/510/506 212/509/505 211/511/507
f 205/510/506 211/511/507 206/512/508
f 206/512/508 211/511/507 210/513/509
f 206/512/508 210/513/509 207/514/510
f 207/514/510 210/513/509 209/515/511
f 207/514/510 209/515/511 208/516/512
# 256 vertices
# 516 texture params
# 512 normals
# 508 facets

# 1 groups
